<svg xmlns="http://www.w3.org/2000/svg" viewBox="0 0 269.67619 206.05137">
  <title>Asset 3</title>
  <g id="Layer_2" data-name="Layer 2">
    <g id="surface">
      <polyline id="seabed" points="0.734 4.086 8.817 3.294 33.067 2.377 36.026 1.002 39.067 2.461 42.359 3.086 46.151 1.919 49.151 1.294 53.859 1.377 60.942 2.044 67.359 2.794 74.817 2.961 80.776 2.127 83.442 1.044 89.192 0.502 93.234 0.919 106.817 3.502 113.526 3.711 118.609 2.794 121.901 0.877 144.317 2.419 151.567 2.711 159.484 2.294 164.401 1.627 172.234 1.794 186.401 3.211 193.234 3.044 195.609 2.502 199.276 1.627 204.067 1.336 208.776 1.336 219.401 3.127 229.817 4.711 234.276 2.961 240.567 2.419 251.901 3.794 260.442 4.461 267.567 3.419 268.776 3.752" fill="none" stroke="#08007f" stroke-miterlimit="10"/>
      <polyline id="base-quaternary" points="0.859 21.002 27.401 18.002 50.692 16.211 65.734 13.169 79.692 11.169 98.359 9.419 128.692 8.169 173.192 7.127 187.526 6.002 245.609 7.544 268.734 7.627" fill="none" stroke="#08007f" stroke-miterlimit="10"/>
      <polyline id="base-neogene" points="0.651 68.711 7.109 63.377 9.484 60.961 13.609 57.752 17.942 56.294 19.776 54.961 24.359 52.461 27.484 52.544 29.026 50.877 32.067 43.211 34.901 41.586 36.067 38.044 37.192 37.252 37.442 31.336 39.276 28.377 43.526 24.252 47.526 22.252 50.317 20.252 53.526 19.752 55.817 18.627 57.234 18.294 58.067 16.836 58.609 14.627" fill="none" stroke="#08007f" stroke-miterlimit="10"/>
      <polyline id="base-paleogene" points="0.5257200002670288,110.33576202392578,6.170962333679199,111.23654174804688,7.884583473205566,106.49808502197266,12.570684432983398,106.42365264892578,15.826300621032715,105.4152603149414,18.531158447265625,102.86163330078125,18.843191146850586,97.0162124633789,22.061859130859375,95.29346466064453,27.745267868041992,96.42754364013672,30.601032257080078,91.98988342285156,33.242897033691406,86.76620483398438,36.20929718017578,81.72254180908203,37.56255340576172,76.03802490234375,38.85373306274414,70.32845306396484,40.47026824951172,64.7034683227539,42.24717330932617,59.132781982421875,44.56935501098633,53.75934600830078,47.429622650146484,48.672306060791016,51.6654167175293,45.85940933227539,57.23927688598633,47.64781188964844,62.83515548706055,46.88931655883789,68.47396087646484,45.375404357910156,74.07245635986328,44.39329147338867,79.29497528076172,46.860435485839844,83.3906478881836,50.90110778808594,86.6336441040039,55.66977310180664,91.78531646728516,58.4494514465332,95.04896545410156,63.18623733520508,97.66559600830078,68.38343048095703,101.61778259277344,72.65628051757812,107.24610137939453,72.8766098022461,112.6944808959961,70.87655639648438,118.15157318115234,68.85275268554688,123.1490707397461,66.39291381835938,128.62969970703125,64.46236419677734,133.43321228027344,61.1666145324707,138.77122497558594,59.11899185180664,143.85585021972656,56.249393463134766,147.24746704101562,54.516109466552734,151.66163635253906,51.658084869384766,153.62046813964844,46.239166259765625,155.7218475341797,40.775596618652344,158.8452911376953,36.030216217041016,161.11279296875,30.677383422851562,165.2557373046875,26.713045120239258,169.91131591796875,23.6201114654541,172.4407958984375,19.35974884033203,177.84848022460938,17.154298782348633,181.73399353027344,14.627189636230469,187.02532958984375,12.51819896697998,192.47264099121094,10.663666725158691,198.0343780517578,9.79185676574707,203.56265258789062,9.091925621032715,209.31626892089844,9.013473510742188,215.14434814453125,9.548410415649414,220.70974731445312,8.643732070922852,226.34555053710938,8.391528129577637,231.89663696289062,9.03975772857666,235.66580200195312,11.546493530273438,240.74598693847656,9.783445358276367,246.03485107421875,9.517709732055664,251.8023223876953,9.170100212097168,257.5339660644531,9.364239692687988,263.3557434082031,8.89401626586914" fill="none" stroke="#08007f" stroke-miterlimit="10"/>
      <polyline id="base-upper-cretaceous-1" points="0.2757200002670288,126.0024185180664,5.18579626083374,121.49759674072266,11.362342834472656,119.85552215576172,16.63382339477539,115.99405670166016,19.973676681518555,110.1975326538086,25.377351760864258,106.38214874267578,29.063993453979492,102.31063079833984,32.02260971069336,96.2669677734375,34.3294563293457,89.97108459472656,36.337852478027344,83.54981231689453,38.4678840637207,77.1849136352539,40.311092376708984,70.7134780883789,42.08787155151367,64.22330474853516,44.33258819580078,57.89193344116211,47.8135986328125,52.16759490966797,52.27352523803711,48.5169563293457,58.89047622680664,49.73798751831055,65.23808288574219,48.47529983520508,71.79280853271484,47.13614273071289,78.20270538330078,48.86106872558594,82.6241226196289,53.880455017089844,87.07648468017578,58.8348388671875,92.21098327636719,62.960838317871094,96.08072662353516,68.46347045898438,100.03955078125,73.8738784790039,106.24346923828125,75.08981323242188,112.24458312988281,73.76300048828125,118.62417602539062,74.01509094238281,124.9238052368164,72.63816833496094,131.09156799316406,70.29986572265625,136.62242126464844,66.73405456542969,140.72959899902344,61.405731201171875" fill="none" stroke="#08007f" stroke-miterlimit="10"/>
      <polyline id="base-upper-cretaceous-2" points="240.567 10.252 240.901 14.336 237.317 14.794 234.567 13.877 234.109 10.836" fill="none" stroke="#08007f" stroke-miterlimit="10"/>
      <polyline id="base-lower-cretaceous" points="0.484 161.877 4.984 161.627 8.567 160.919 10.692 160.169 12.234 160.086 22.109 158.377 23.942 158.877 26.151 157.586 29.734 153.586 31.901 143.961 33.359 135.752 35.026 128.336 36.651 124.669 38.276 123.586 39.484 123.586 42.026 101.461 43.442 101.252 44.859 103.336 46.442 112.086 48.651 125.877 49.984 134.127 51.192 138.002 52.567 140.169 53.984 141.044 55.276 141.252 56.567 140.752 57.817 139.669 59.192 139.461 60.859 138.211 62.234 136.252 64.776 132.252 66.442 129.044 68.401 126.752 68.734 124.919 69.901 125.627 70.817 126.961 73.359 135.169 77.901 147.586 79.401 155.086 80.901 164.669 82.151 166.586 83.817 167.377 85.276 167.211 86.942 166.419 88.942 164.211 90.692 160.877 91.484 157.544 92.192 156.211 93.067 156.169 94.151 157.752 98.526 157.502 100.734 157.252 103.192 157.919 104.442 158.836 105.734 160.336 106.526 162.586 106.526 167.544 107.859 170.919 109.067 172.627 109.484 169.877 110.859 170.294 112.026 172.669 113.192 173.836 114.692 174.002 116.692 172.294 119.776 168.002 120.651 178.211 122.401 175.836 124.609 172.211 126.567 170.752 130.692 168.544 132.734 166.252 134.109 162.961 132.901 114.711 134.567 112.211 134.817 111.544 135.651 111.377 135.651 110.586 136.984 110.711 137.901 110.377 139.859 108.086 142.192 106.252 143.234 106.919 144.359 73.794 146.067 73.794 147.442 74.919 148.442 77.294 149.942 78.627 150.901 76.919 151.942 74.836 152.234 51.086" fill="none" stroke="#08007f" stroke-miterlimit="10"/>
      <polyline id="base-jurrasic-1" points="29.734 153.586 31.651 152.169 33.359 149.044 35.109 141.002 36.484 134.002 37.817 130.294 38.859 128.502 39.484 123.586" fill="none" stroke="#08007f" stroke-miterlimit="10"/>
      <polyline id="base-jurrasic-2" points="41.234 107.586 42.442 109.586 44.692 116.919 46.776 126.669 49.234 139.961 50.526 143.627 52.776 146.877 53.942 147.794 56.276 148.002 58.484 147.169 61.567 144.919 66.442 136.461 67.692 134.627 69.359 133.877 72.151 141.419 74.067 147.669 76.609 154.586 78.692 168.669 79.692 173.377 81.192 175.877 82.192 177.086 85.401 176.669 87.317 175.961 88.984 174.461 90.651 171.877 91.609 169.127 91.776 165.752 92.526 164.294 93.651 165.044 95.067 167.502 96.026 169.669 96.776 169.961 98.234 169.461 94.151 157.752" fill="none" stroke="#08007f" stroke-miterlimit="10"/>
      <polyline id="base-jurrasic-3" points="106.526 167.544 105.817 175.294 107.776 176.669 108.692 177.961 110.317 178.044 113.609 179.961 114.026 183.877 115.442 183.669 116.651 182.919 117.859 180.961 119.234 178.002 120.359 175.711 121.192 185.002 122.609 182.919 123.776 181.044 125.151 179.877 128.109 178.002 131.567 175.794 133.817 172.461 134.359 170.461 134.109 162.961" fill="none" stroke="#08007f" stroke-miterlimit="10"/>
      <polyline id="base-jurrasic-4" points="133.026 120.461 134.817 117.377 135.609 116.877 135.734 115.544 136.567 115.669 137.317 115.169 138.942 114.002 140.859 112.669 142.151 112.419 143.067 113.044 143.234 106.919" fill="none" stroke="#08007f" stroke-miterlimit="10"/>
      <polyline id="base-jurrasic-5" points="144.234 78.336 145.692 80.294 147.692 83.336 148.817 84.836 149.692 85.794 151.484 86.294 151.942 74.836" fill="none" stroke="#08007f" stroke-miterlimit="10"/>
      <polyline id="base-jurassic-6" points="154.276 44.586 155.484 46.336 157.401 49.461 158.651 50.836 159.151 51.002 160.401 50.211 161.651 30.086" fill="none" stroke="#08007f" stroke-miterlimit="10"/>
      <polyline id="base-jurassic-7" points="162.401 28.836 163.567 45.752 165.151 44.627 166.234 44.211 166.942 28.336 168.067 28.961 169.859 30.961 170.817 32.169 171.901 32.711 172.234 22.711" fill="none" stroke="#08007f" stroke-miterlimit="10"/>
      <polyline id="base-triassic" points="105.8173828125,175.29408264160156,105.18951416015625,180.11448669433594,104.5616455078125,184.9348907470703,103.99762725830078,189.7213897705078,106.20891571044922,193.8142852783203,109.87154388427734,196.95858764648438,113.42578125,200.27377319335938,117.05552673339844,203.505126953125,121.2624282836914,205.4262237548828,125.82514190673828,204.24508666992188,129.45120239257812,201.09738159179688,132.0953826904297,197.0939178466797,134.1652374267578,192.6954803466797,135.6944122314453,188.10269165039062,136.89857482910156,183.39306640625,138.1027374267578,178.68345642089844,138.8901824951172,173.9044189453125,139.9223175048828,169.17849731445312,141.3007354736328,164.51690673828125,142.67916870117188,159.85531616210938,143.9478759765625,155.16551208496094,144.98916625976562,150.41722106933594,145.89056396484375,145.64479064941406,146.5010223388672,140.8221435546875,147.44052124023438,136.05316162109375,148.99887084960938,131.4984588623047,151.2296142578125,127.17939758300781,154.3278045654297,123.49459838867188,156.0438995361328,119.25428771972656,156.47116088867188,114.41197967529297,158.652587890625,110.12516784667969,160.227783203125,105.61630249023438,161.29469299316406,100.96776580810547,164.75265502929688,97.75627899169922,167.0076141357422,94.43529510498047,167.77230834960938,89.63468933105469,171.26101684570312,87.76663208007812,175.6658172607422,85.80175018310547,178.99905395507812,82.26338958740234,181.89952087402344,78.40499877929688,184.30601501464844,74.18134307861328,186.71054077148438,69.9565658569336,189.11448669433594,65.73146057128906,191.22975158691406,61.367279052734375,193.0351104736328,56.853851318359375,195.02601623535156,52.432430267333984,198.37789916992188,49.06266784667969,203.07565307617188,49.1888313293457,206.2271728515625,52.755550384521484,208.54190063476562,56.59444808959961,212.3593292236328,57.49354934692383,215.94577026367188,60.569881439208984,220.28660583496094,62.757869720458984,224.8804168701172,62.52204895019531,229.54644775390625,63.678810119628906,234.39927673339844,63.797698974609375,236.7171630859375,66.51347351074219,239.6985626220703,66.48694610595703,244.48269653320312,67.3453140258789,247.22552490234375,67.96517181396484,252.0145721435547,68.75316619873047,256.6973876953125,70.05741882324219,261.2770080566406,70.64055633544922,265.8622741699219,69.2586669921875" fill="none" stroke="#08007f" stroke-miterlimit="10"/>
      <polyline id="base-permian-1" points="155.7995147705078,122.02448272705078,158.86917114257812,121.54946899414062,160.89918518066406,119.39698028564453,163.53912353515625,118.09105682373047,165.06785583496094,116.1396255493164,165.26416015625,113.04048156738281,167.75811767578125,112.17739868164062,170.86111450195312,112.31510925292969,173.899658203125,112.8994369506836,175.2752227783203,111.7895736694336,177.33734130859375,112.0190658569336,180.1651153564453,113.30441284179688,183.21836853027344,113.471923828125,185.07740783691406,111.17668151855469,186.27696228027344,108.35350036621094,187.03713989257812,105.34221649169922,187.67457580566406,102.30213165283203,188.31202697753906,99.26203918457031,188.949462890625,96.22195434570312,189.58689880371094,93.18186950683594,190.1959686279297,90.13851165771484,190.26736450195312,87.03313446044922,190.33876037597656,83.9277572631836,190.70477294921875,80.84884643554688,191.18798828125,77.78047180175781,191.67120361328125,74.71208953857422,192.17874145507812,71.64791107177734,192.75335693359375,68.59532928466797,193.3279571533203,65.54273986816406,194.05845642089844,62.52390670776367,194.7978973388672,59.50700759887695,195.31912231445312,56.4981689453125" fill="none" stroke="#08007f" stroke-miterlimit="10"/>
      <polyline id="base-permian-2" points="198.026 49.461 200.859 52.294 206.526 61.211 212.859 74.044 215.776 79.044 219.109 82.544 222.859 83.127 228.609 84.377 232.026 83.711 234.692 82.794 237.609 82.211 239.192 83.711 247.942 85.877 257.942 91.044 264.692 91.211 268.359 91.961 269.026 94.211" fill="none" stroke="#08007f" stroke-miterlimit="10"/>
      <polyline id="base-carboniferous" points="195.442 56.877 197.609 61.877 201.359 69.377 208.692 82.627 212.026 89.794 214.276 97.294 218.442 105.711 221.609 110.044 227.609 114.044 230.359 114.877 233.942 113.377 236.692 110.544 241.776 107.961 248.609 106.794 256.276 107.044 260.859 105.627 268.109 107.044" fill="none" stroke="#08007f" stroke-miterlimit="10"/>
    </g>
    <g id="fault">
      <line id="fault-14" x1="48.77572" y1="43.16909" x2="38.77572" y2="132.79409" fill="none" stroke="#7c0015" stroke-miterlimit="10"/>
      <line id="fault-3" x1="78.90072" y1="44.29409" x2="68.65072" y2="127.29409" fill="none" stroke="#7c0015" stroke-miterlimit="10"/>
      <polyline id="fault-1" points="144.651 51.919 142.901 118.294 139.151 181.169" fill="none" stroke="#7c0015" stroke-miterlimit="10"/>
      <line id="fault-5" x1="156.02572" y1="125.54409" x2="161.52572" y2="26.66909" fill="none" stroke="#7c0015" stroke-miterlimit="10"/>
      <line id="fault-13" x1="164.77572" y1="65.54409" x2="162.15072" y2="27.29409" fill="none" stroke="#7c0015" stroke-miterlimit="10"/>
      <polyline id="fault-12" points="167.151 22.544 164.901 67.919 159.276 114.044" fill="none" stroke="#7c0015" stroke-miterlimit="10"/>
      <polyline id="fault-2" points="173.651 7.294 170.151 61.419 164.776 118.169" fill="none" stroke="#7c0015" stroke-miterlimit="10"/>
      <polyline id="fault-11" points="152.401 50.169 149.651 118.294 148.526 135.919" fill="none" stroke="#7c0015" stroke-miterlimit="10"/>
      <line id="fault-10" x1="181.73405" y1="14.46076" x2="181.15072" y2="64.54409" fill="none" stroke="#7c0015" stroke-miterlimit="10"/>
      <line id="fault-9" x1="175.40072" y1="18.04409" x2="174.27572" y2="67.91909" fill="none" stroke="#7c0015" stroke-miterlimit="10"/>
      <polyline id="fault-8" points="179.27572631835938,14.669090270996094,179.35299682617188,17.669313430786133,179.43685913085938,20.669374465942383,179.52139282226562,23.669416427612305,179.6071319580078,26.669422149658203,179.69287109375,29.669429779052734,179.77926635742188,32.6694221496582,179.8658447265625,35.669403076171875,179.95240783691406,38.66938781738281,180.0396270751953,41.669349670410156,180.12692260742188,44.6693115234375,180.21421813964844,47.669273376464844,180.30152893066406,50.66924285888672,180.38882446289062,53.66920471191406,180.4761199951172,56.669166564941406,180.5634307861328,59.66912841796875" fill="none" stroke="#7c0015" stroke-miterlimit="10"/>
      <polyline id="fault-7" points="233.817 8.669 235.776 46.794 237.276 71.919" fill="none" stroke="#7c0015" stroke-miterlimit="10"/>
      <line id="fault-6" x1="237.31738" y1="14.79409" x2="235.77572" y2="46.79409" fill="none" stroke="#7c0015" stroke-miterlimit="10"/>
      <line id="fault-5-2" data-name="fault-5" x1="239.40072" y1="66.29409" x2="240.52572" y2="8.66909" fill="none" stroke="#7c0015" stroke-miterlimit="10"/>
      <line id="fault-4" x1="135.02572" y1="203.91909" x2="132.52572" y2="107.79409" fill="none" stroke="#7c0015" stroke-miterlimit="10"/>
      <line id="fault-15" x1="122.27572" y1="197.04409" x2="118.27572" y2="147.66909" fill="none" stroke="#7c0015" stroke-miterlimit="10"/>
      <line id="fault-16" x1="113.27572" y1="175.54409" x2="115.60905" y2="202.29409" fill="none" stroke="#7c0015" stroke-miterlimit="10"/>
      <line id="fault-17" x1="109.27572" y1="168.29409" x2="106.77572" y2="196.41909" fill="none" stroke="#7c0015" stroke-miterlimit="10"/>
      <line id="fault-18" x1="32.15072" y1="104.79409" x2="37.27572" y2="29.79409" fill="none" stroke="#7c0015" stroke-miterlimit="10"/>
      <polyline id="fault-19" points="26.025720596313477,156.79408264160156,26.56637954711914,151.17857360839844,26.867292404174805,145.53211975097656,27.12618064880371,139.88357543945312,27.363494873046875,134.23406982421875,27.58645248413086,128.583984375,27.799497604370117,122.93351745605469,28.00473403930664,117.28276062011719,28.20412254333496,111.63179016113281,28.3978328704834,105.98062133789062,28.58662223815918,100.32929229736328,28.772932052612305,94.67787170410156,28.954458236694336,89.02629852294922,29.1331844329834,83.3746337890625,29.30898094177246,77.72289276123047,29.481651306152344,72.07103729248047" fill="none" stroke="#7c0015" stroke-miterlimit="10"/>
      <line id="fault-20" x1="18.27572" y1="110.91909" x2="19.40072" y2="76.66909" fill="none" stroke="#7c0015" stroke-miterlimit="10"/>
      <line id="fault-21" x1="11.27572" y1="122.54409" x2="13.90072" y2="84.91909" fill="none" stroke="#7c0015" stroke-miterlimit="10"/>
      <line id="fault-22" x1="6.27572" y1="130.04409" x2="8.77572" y2="87.54409" fill="none" stroke="#7c0015" stroke-miterlimit="10"/>
      <line id="fault-23" x1="189.65072" y1="74.54409" x2="191.27572" y2="119.66909" fill="none" stroke="#7c0015" stroke-miterlimit="10"/>
      <line id="fault-24" x1="175.65072" y1="115.04409" x2="175.90072" y2="93.41909" fill="none" stroke="#7c0015" stroke-miterlimit="10"/>
      <line id="fault-25" x1="129.52572" y1="71.91909" x2="129.40072" y2="62.79409" fill="none" stroke="#7c0015" stroke-miterlimit="10"/>
    </g>
  </g>
</svg>
